# xmcd
#
# Track frame offsets:
#	150
#	39691
#	88773
#	183314
#	230303
#	271155
#
# Disc length: 3999 seconds
#
# Revision: 2
# Processed by: cddbd v1.4PL0 Copyright (c) Steve Scherf et al.
# Submitted via: EZCDDA 4.3.2
#
DISCID=460f9d06
DTITLE=John Mayall - Rock The Blues Tonight CD2
DYEAR=1900
DGENRE=
TTITLE0=Took The Car
TTITLE1=Crying
TTITLE2=Possesive Emotions
TTITLE3=Won't Have To Worry
TTITLE4=Rock The Blues Tonight
TTITLE5=Goodtime Stomp
EXTD=
EXTT0=
EXTT1=
EXTT2=
EXTT3=
EXTT4=
EXTT5=
PLAYORDER=
